<?xml version="1.0" encoding="UTF-8"?>
<svg width="34px" height="34px" viewBox="0 0 34 34" version="1.1" xmlns="http://www.w3.org/2000/svg" xmlns:xlink="http://www.w3.org/1999/xlink">
    <title>􀱋</title>
    <g id="Page-1" stroke="none" stroke-width="1" fill="none" fill-rule="evenodd">
        <g id="Artboard" transform="translate(-114.000000, -396.000000)" fill="#3D3D3D" fill-rule="nonzero">
            <g id="􀱋" transform="translate(114.000000, 396.000000)">
                <path d="M5.88945869,34 L28.1105413,34 C30.0607787,34 31.5299145,33.5121627 32.5179487,32.536488 C33.5059829,31.5608134 34,30.1102242 34,28.1847206 L34,5.83466363 C34,3.90916002 33.5059829,2.45534017 32.5179487,1.4732041 C31.5299145,0.491068035 30.0607787,0 28.1105413,0 L5.88945869,0 C3.95213675,0 2.48622982,0.487837324 1.49173789,1.46351197 C0.497245964,2.43918662 0,3.89623717 0,5.83466363 L0,28.1847206 C0,30.1231471 0.497245964,31.5769669 1.49173789,32.5461802 C2.48622982,33.5153934 3.95213675,34 5.88945869,34 Z M6.02507123,30.7240593 C5.14681861,30.7240593 4.47521368,30.4914481 4.01025641,30.0262258 C3.54529915,29.5610034 3.31282051,28.8696313 3.31282051,27.9521095 L3.31282051,6.0672748 C3.31282051,5.14975295 3.54529915,4.45838084 4.01025641,3.99315849 C4.47521368,3.52793615 5.14681861,3.29532497 6.02507123,3.29532497 L27.9749288,3.29532497 C28.8402659,3.29532497 29.5118708,3.52793615 29.9897436,3.99315849 C30.4676163,4.45838084 30.7065527,5.14975295 30.7065527,6.0672748 L30.7065527,27.9521095 C30.7065527,28.8696313 30.4676163,29.5610034 29.9897436,30.0262258 C29.5118708,30.4914481 28.8402659,30.7240593 27.9749288,30.7240593 L6.02507123,30.7240593 Z M22.7441595,12.2702395 C22.3179487,12.2702395 21.9724596,12.40916 21.7076923,12.6870011 C21.442925,12.9648423 21.3105413,13.3428354 21.3105413,13.8209806 L21.3105413,16.8643101 L21.5817664,19.5974914 L19.0438746,16.8449259 L12.4569801,10.2736602 C12.159924,9.96351197 11.7853751,9.80843786 11.3333333,9.80843786 C10.894207,9.80843786 10.5358025,9.94412771 10.2581197,10.2155074 C9.98043685,10.4868871 9.84159544,10.8487267 9.84159544,11.3010262 C9.84159544,11.7016344 10.0030389,12.0570125 10.3259259,12.3671608 L16.8934473,18.9578107 L19.6831909,21.5359179 L17.0871795,21.2451539 L13.8712251,21.2451539 C13.4062678,21.2451539 13.0317189,21.3743824 12.7475783,21.6328392 C12.4634378,21.8912961 12.3213675,22.2402128 12.3213675,22.6795895 C12.3213675,23.1060433 12.4602089,23.4517294 12.7378917,23.7166477 C13.0155745,23.9815659 13.3868946,24.1140251 13.8518519,24.1140251 L22.4729345,24.1140251 C23.0024691,24.1140251 23.4157645,23.9783352 23.7128205,23.7069555 C24.0098765,23.4355758 24.1584046,23.009122 24.1584046,22.4275941 L24.1584046,13.8403649 C24.1584046,13.3880654 24.0292498,13.0133029 23.7709402,12.7160775 C23.5126306,12.4188521 23.1703704,12.2702395 22.7441595,12.2702395 Z" id="Shape"></path>
            </g>
        </g>
    </g>
</svg>