<?xml version="1.0" encoding="UTF-8"?>
<svg width="30px" height="30px" viewBox="0 0 30 30" version="1.1" xmlns="http://www.w3.org/2000/svg" xmlns:xlink="http://www.w3.org/1999/xlink">
    <title>􀊭</title>
    <g id="Page-1" stroke="none" stroke-width="1" fill="none" fill-rule="evenodd">
        <g id="Artboard" transform="translate(-401.000000, -211.000000)" fill="#3D3D3D" fill-rule="nonzero">
            <g id="􀊭" transform="translate(401.000000, 211.000000)">
                <path d="M0,12.2014925 C0,13.8859275 0.317545748,15.4664179 0.952637244,16.9429638 C1.58772874,18.4195096 2.47039828,19.717484 3.60064586,20.836887 C4.73089343,21.95629 6.03875135,22.8304904 7.52421959,23.4594883 C9.00968784,24.0884861 10.6027987,24.4029851 12.3035522,24.4029851 C13.606028,24.4029851 14.8439182,24.2110874 16.0172228,23.8272921 C17.1905274,23.4434968 18.2723358,22.9104478 19.262648,22.228145 L26.5123789,29.4402985 C26.7168999,29.6321962 26.9483315,29.7734542 27.2066738,29.8640725 C27.4650161,29.9546908 27.7287406,30 27.9978471,30 C28.3853606,30 28.729817,29.9120469 29.0312164,29.7361407 C29.3326157,29.5602345 29.5694295,29.3203625 29.7416577,29.0165245 C29.9138859,28.7126866 30,28.3635394 30,27.9690832 C30,27.7132196 29.9515608,27.4626866 29.8546825,27.217484 C29.7578041,26.9722814 29.6178687,26.7484009 29.4348762,26.5458422 L22.2174381,19.3816631 C22.9817008,18.3795309 23.5737352,17.2681237 23.9935414,16.0474414 C24.4133477,14.8267591 24.6232508,13.5447761 24.6232508,12.2014925 C24.6232508,10.5170576 24.3057051,8.93656716 23.6706136,7.46002132 C23.0355221,5.98347548 22.1528525,4.68816631 21.022605,3.57409382 C19.8923574,2.46002132 18.5844995,1.5858209 17.0990312,0.951492537 C15.613563,0.317164179 14.01507,0 12.3035522,0 C10.6027987,0 9.00968784,0.317164179 7.52421959,0.951492537 C6.03875135,1.5858209 4.73089343,2.46002132 3.60064586,3.57409382 C2.47039828,4.68816631 1.58772874,5.98347548 0.952637244,7.46002132 C0.317545748,8.93656716 0,10.5170576 0,12.2014925 Z M2.9386437,12.2014925 C2.9386437,10.9221748 3.18083961,9.72014925 3.66523143,8.59541578 C4.14962325,7.4706823 4.82238967,6.48454158 5.68353068,5.6369936 C6.54467169,4.78944563 7.54036598,4.12579957 8.67061356,3.64605544 C9.80086114,3.1663113 11.0118407,2.92643923 12.3035522,2.92643923 C13.606028,2.92643923 14.8223897,3.1663113 15.9526372,3.64605544 C17.0828848,4.12579957 18.0758881,4.78944563 18.9316469,5.6369936 C19.7874058,6.48454158 20.4574812,7.4706823 20.941873,8.59541578 C21.4262648,9.72014925 21.6684607,10.9221748 21.6684607,12.2014925 C21.6684607,13.4808102 21.4262648,14.6828358 20.941873,15.8075693 C20.4574812,16.9323028 19.7874058,17.9184435 18.9316469,18.7659915 C18.0758881,19.6135394 17.0828848,20.2771855 15.9526372,20.7569296 C14.8223897,21.2366738 13.606028,21.4765458 12.3035522,21.4765458 C11.0118407,21.4765458 9.80086114,21.2366738 8.67061356,20.7569296 C7.54036598,20.2771855 6.54467169,19.6135394 5.68353068,18.7659915 C4.82238967,17.9184435 4.14962325,16.9323028 3.66523143,15.8075693 C3.18083961,14.6828358 2.9386437,13.4808102 2.9386437,12.2014925 Z M8.37997847,13.3528785 L16.2432723,13.3528785 C16.5662002,13.3528785 16.8406889,13.2382729 17.0667384,13.0090618 C17.2927879,12.7798507 17.4058127,12.510661 17.4058127,12.2014925 C17.4058127,11.8923241 17.2927879,11.6231343 17.0667384,11.3939232 C16.8406889,11.1647122 16.5662002,11.0501066 16.2432723,11.0501066 L8.37997847,11.0501066 C8.06781485,11.0501066 7.79601722,11.1647122 7.56458558,11.3939232 C7.33315393,11.6231343 7.21743811,11.8923241 7.21743811,12.2014925 C7.21743811,12.510661 7.33315393,12.7798507 7.56458558,13.0090618 C7.79601722,13.2382729 8.06781485,13.3528785 8.37997847,13.3528785 Z" id="Shape"></path>
            </g>
        </g>
    </g>
</svg>