<svg id="logo_solo" xmlns="http://www.w3.org/2000/svg" width="446" height="105" viewBox="0 0 446 105">
  <path id="Rectángulo_2506" data-name="Rectángulo 2506" d="M0,0H446a0,0,0,0,1,0,0V75a30,30,0,0,1-30,30H30A30,30,0,0,1,0,75V0A0,0,0,0,1,0,0Z" fill="rgba(0,0,0,0.5)"/>
  <g id="octopy" transform="translate(-196.8 -238.849)">
    <g id="Grupo_14876" data-name="Grupo 14876" transform="translate(294.8 261.912)">
      <g id="Grupo_14875" data-name="Grupo 14875">
        <path id="Trazado_22826" data-name="Trazado 22826" d="M413.781,309.659l7.845,4.452a18.765,18.765,0,1,1,0-20.14l-7.845,4.523a9.219,9.219,0,0,0-8.268-4.594c-6.006,0-9.752,4.594-9.752,10.176s3.746,10.176,9.752,10.176A9.222,9.222,0,0,0,413.781,309.659Z" transform="translate(-333.279 -271.709)" fill="#fff"/>
        <path id="Trazado_22827" data-name="Trazado 22827" d="M471.844,309.008c-.552.052-1.172.1-1.667.1-4.947,0-5.512-2.4-5.512-6.5V289.528h7.174a22.762,22.762,0,0,1,6.149-8.2H464.665v-7.491h-8.976v7.491H450.6v8.2h5.088v14.559c0,7.42,3.676,13.568,12.862,13.568a11.566,11.566,0,0,0,3.745-.5v-7.194Q472.06,309.493,471.844,309.008Z" transform="translate(-360.125 -266.914)" fill="#fff"/>
        <path id="Trazado_22828" data-name="Trazado 22828" d="M529.436,304.076a18.9,18.9,0,1,1-18.939-18.8A18.6,18.6,0,0,1,529.436,304.076Zm-9.187,0c0-5.582-3.746-10.176-9.752-10.176-5.936,0-9.682,4.594-9.682,10.176s3.746,10.176,9.682,10.176C516.5,314.252,520.248,309.659,520.248,304.076Z" transform="translate(-377.327 -271.709)" fill="#fff"/>
        <path id="Trazado_22829" data-name="Trazado 22829" d="M601.855,305.98c.057-.633.092-1.268.092-1.9s-.034-1.267-.092-1.9c-.008-.081-.021-.159-.03-.24-.885-8.635-7.087-16.661-17.405-16.661-.243,0-.462.026-.7.034-.239-.009-.472-.034-.714-.034a19.139,19.139,0,0,0-9.964,2.736v-1.887h-8.976v49.468h8.976V320.121a19.079,19.079,0,0,0,9.964,2.752c.244,0,.48-.026.722-.035.233.008.45.035.69.035,10.354,0,16.565-8.08,17.416-16.748C601.842,306.076,601.85,306.029,601.855,305.98Zm-18.812,8.271a11.211,11.211,0,0,1-2.167-.21,9.029,9.029,0,0,1-5.48-3.448c-.018-.024-.038-.046-.056-.07-.03-.041-.055-.085-.085-.127a11.665,11.665,0,0,1,0-12.64c.029-.041.053-.085.083-.125s.039-.048.058-.073a9.03,9.03,0,0,1,5.479-3.445,11.213,11.213,0,0,1,2.167-.21c5.986.018,9.718,4.6,9.718,10.174S589.029,314.232,583.043,314.251Z" transform="translate(-407.7 -271.709)" fill="#fff"/>
        <path id="Trazado_22830" data-name="Trazado 22830" d="M666.328,286.74l-17.571,49.468h-9.682l4.551-12.813L629.3,286.74h9.682l9.258,23.673,8.409-23.673Z" transform="translate(-435.05 -272.322)" fill="#fff"/>
        <path id="Trazado_22831" data-name="Trazado 22831" d="M320.382,261.912a25.582,25.582,0,1,0,25.582,25.582A25.582,25.582,0,0,0,320.382,261.912Zm0,41.571a15.989,15.989,0,1,1,15.989-15.989A15.989,15.989,0,0,1,320.382,303.483Z" transform="translate(-294.8 -261.912)" fill="#fff"/>
      </g>
    </g>
    <g id="Grupo_14878" data-name="Grupo 14878" transform="translate(531.169 274.108)">
      <g id="Grupo_14877" data-name="Grupo 14877" transform="translate(0 0)">
        <path id="Trazado_22832" data-name="Trazado 22832" d="M708.266,295.78a6.433,6.433,0,1,1,6.432-6.433A6.441,6.441,0,0,1,708.266,295.78Zm0-11.533a5.1,5.1,0,1,0,5.1,5.1A5.106,5.106,0,0,0,708.266,284.247Z" transform="translate(-701.832 -282.914)" fill="#fff"/>
      </g>
      <path id="Trazado_22833" data-name="Trazado 22833" d="M710.523,290.938a1.185,1.185,0,0,0,.778-.2.828.828,0,0,0,.239-.665.81.81,0,0,0-.239-.657,1.208,1.208,0,0,0-.778-.2h-.729v1.724h.729m-.729,1.2v2.542h-1.732v-6.718h2.646a3.36,3.36,0,0,1,1.944.445,1.616,1.616,0,0,1,.621,1.408,1.76,1.76,0,0,1-.324,1.094,1.852,1.852,0,0,1-.968.63,1.271,1.271,0,0,1,.635.369,3.327,3.327,0,0,1,.571.864l.94,1.908h-1.845l-.819-1.669a1.838,1.838,0,0,0-.5-.689,1.116,1.116,0,0,0-.675-.185h-.491" transform="translate(-704.444 -285.029)" fill="#fff"/>
    </g>
  </g>
</svg>
