<svg xmlns="http://www.w3.org/2000/svg" width="426.063" height="80.921" viewBox="0 0 426.063 80.921">
  <g id="robots_navigate_logo" transform="translate(0 0)">
    <circle id="Elipse_1" data-name="Elipse 1" cx="4.567" cy="4.567" r="4.567" transform="translate(348.645 21.938)" fill="#2aa4d5"/>
    <rect id="Rectángulo_2" data-name="Rectángulo 2" width="3.366" height="9.133" rx="1.57" transform="translate(360.662 21.938)" fill="#2aa4d5"/>
    <rect id="Rectángulo_3" data-name="Rectángulo 3" width="3.366" height="9.133" rx="1.57" transform="translate(366.791 22.075)" fill="#2aa4d5"/>
    <circle id="Elipse_2" data-name="Elipse 2" cx="4.567" cy="4.567" r="4.567" transform="translate(373.151 22.42)" fill="#2aa4d5"/>
    <rect id="Rectángulo_4" data-name="Rectángulo 4" width="3.366" height="9.133" rx="1.57" transform="translate(419.758 22.443)" fill="#2aa4d5"/>
    <circle id="Elipse_3" data-name="Elipse 3" cx="4.567" cy="4.567" r="4.567" transform="translate(384.706 22.514)" fill="#2aa4d5"/>
    <circle id="Elipse_4" data-name="Elipse 4" cx="4.567" cy="4.567" r="4.567" transform="translate(396.179 22.465)" fill="#2aa4d5"/>
    <circle id="Elipse_5" data-name="Elipse 5" cx="4.567" cy="4.567" r="4.567" transform="translate(407.734 22.563)" fill="#2aa4d5"/>
    <circle id="Elipse_6" data-name="Elipse 6" cx="4.567" cy="4.567" r="4.567" transform="translate(348.645 34.919)" fill="#2aa4d5"/>
    <rect id="Rectángulo_5" data-name="Rectángulo 5" width="3.366" height="9.133" rx="1.57" transform="translate(360.662 34.919)" fill="#2aa4d5"/>
    <rect id="Rectángulo_6" data-name="Rectángulo 6" width="3.366" height="9.133" rx="1.57" transform="translate(366.791 35.052)" fill="#2aa4d5"/>
    <circle id="Elipse_7" data-name="Elipse 7" cx="4.567" cy="4.567" r="4.567" transform="translate(379.176 34.919)" fill="#2aa4d5"/>
    <circle id="Elipse_8" data-name="Elipse 8" cx="4.567" cy="4.567" r="4.567" transform="translate(397.348 34.919)" fill="#2aa4d5"/>
    <rect id="Rectángulo_7" data-name="Rectángulo 7" width="3.366" height="9.133" rx="1.57" transform="translate(390.64 34.919)" fill="#2aa4d5"/>
    <circle id="Elipse_9" data-name="Elipse 9" cx="4.567" cy="4.567" r="4.567" transform="translate(408.509 34.818)" fill="#2aa4d5"/>
    <rect id="Rectángulo_8" data-name="Rectángulo 8" width="3.366" height="9.133" rx="1.57" transform="translate(372.617 35.208)" fill="#2aa4d5"/>
    <ellipse id="Elipse_10" data-name="Elipse 10" cx="4.436" cy="4.567" rx="4.436" ry="4.567" transform="translate(348.876 47.694)" fill="#2aa4d5"/>
    <rect id="Rectángulo_9" data-name="Rectángulo 9" width="3.268" height="9.133" rx="1.57" transform="translate(360.551 47.694)" fill="#2aa4d5"/>
    <ellipse id="Elipse_11" data-name="Elipse 11" cx="4.436" cy="4.567" rx="4.436" ry="4.567" transform="translate(371.647 47.828)" fill="#2aa4d5"/>
    <rect id="Rectángulo_10" data-name="Rectángulo 10" width="3.268" height="9.133" rx="1.57" transform="translate(366.508 47.828)" fill="#2aa4d5"/>
    <rect id="Rectángulo_11" data-name="Rectángulo 11" width="3.268" height="9.133" rx="1.57" transform="translate(395.236 47.828)" fill="#2aa4d5"/>
    <rect id="Rectángulo_12" data-name="Rectángulo 12" width="3.268" height="9.133" rx="1.57" transform="translate(383.091 47.828)" fill="#2aa4d5"/>
    <rect id="Rectángulo_13" data-name="Rectángulo 13" width="3.268" height="9.133" rx="1.57" transform="translate(389.165 47.828)" fill="#2aa4d5"/>
    <rect id="Rectángulo_14" data-name="Rectángulo 14" width="3.268" height="9.133" rx="1.57" transform="translate(400.59 48.023)" fill="#2aa4d5"/>
    <circle id="Elipse_12" data-name="Elipse 12" cx="4.567" cy="4.567" r="4.567" transform="translate(348.876 60.499)" fill="#2aa4d5"/>
    <rect id="Rectángulo_15" data-name="Rectángulo 15" width="3.366" height="9.133" rx="1.57" transform="translate(360.893 60.499)" fill="#2aa4d5"/>
    <rect id="Rectángulo_16" data-name="Rectángulo 16" width="3.366" height="9.133" rx="1.57" transform="translate(367.022 60.633)" fill="#2aa4d5"/>
    <circle id="Elipse_13" data-name="Elipse 13" cx="4.567" cy="4.567" r="4.567" transform="translate(379.156 60.978)" fill="#2aa4d5"/>
    <rect id="Rectángulo_17" data-name="Rectángulo 17" width="3.366" height="9.133" rx="1.57" transform="translate(401.589 60.978)" fill="#2aa4d5"/>
    <rect id="Rectángulo_18" data-name="Rectángulo 18" width="3.366" height="9.133" rx="1.57" transform="translate(373.265 60.913)" fill="#2aa4d5"/>
    <circle id="Elipse_14" data-name="Elipse 14" cx="4.567" cy="4.567" r="4.567" transform="translate(390.265 60.737)" fill="#2aa4d5"/>
    <rect id="Rectángulo_19" data-name="Rectángulo 19" width="3.366" height="9.133" rx="1.57" transform="translate(406.794 60.922)" fill="#2aa4d5"/>
    <circle id="Elipse_15" data-name="Elipse 15" cx="4.567" cy="4.567" r="4.567" transform="translate(348.521 8.414)" fill="#2aa4d5"/>
    <rect id="Rectángulo_20" data-name="Rectángulo 20" width="3.366" height="9.133" rx="1.57" transform="translate(360.538 8.414)" fill="#2aa4d5"/>
    <circle id="Elipse_16" data-name="Elipse 16" cx="4.567" cy="4.567" r="4.567" transform="translate(377.682 8.414)" fill="#2aa4d5"/>
    <circle id="Elipse_17" data-name="Elipse 17" cx="4.567" cy="4.567" r="4.567" transform="translate(389.347 8.414)" fill="#2aa4d5"/>
    <rect id="Rectángulo_21" data-name="Rectángulo 21" width="3.366" height="9.133" rx="1.57" transform="translate(400.863 8.414)" fill="#2aa4d5"/>
    <circle id="Elipse_18" data-name="Elipse 18" cx="4.567" cy="4.567" r="4.567" transform="translate(366.452 8.414)" fill="#2aa4d5"/>
    <circle id="Elipse_19" data-name="Elipse 19" cx="4.567" cy="4.567" r="4.567" transform="translate(406.514 8.518)" fill="#2aa4d5"/>
    <circle id="Elipse_20" data-name="Elipse 20" cx="4.567" cy="4.567" r="4.567" transform="translate(416.93 8.518)" fill="#2aa4d5"/>
    <path id="Unión_1" data-name="Unión 1" d="M97.257,75.954l5.67-3.369c.752,1.127,2.813,2.2,5.533,2.2,4.641,0,6.048-2.532,6.048-6.233V67.478c-1.3,1.687-3.376,2.9-6.657,2.9-7.265,0-11.434-5.389-11.434-11.623s4.124-11.623,11.434-11.623a7.676,7.676,0,0,1,6.657,3.142V47.7l7.59-.006v21.7c0,6.751-4.882,11.529-13.312,11.529C103.63,80.921,99.084,78.906,97.257,75.954Zm6.842-17.2A5.062,5.062,0,1,0,109.16,53.7,4.8,4.8,0,0,0,104.1,58.758Zm65.069.84a12.277,12.277,0,0,1,12.281-12.467c7.011,0,13.2,4.779,12.268,14.761H176.56c.8,2.767,3.047,4.033,5.953,4.033a6.44,6.44,0,0,0,4.882-2.064l5.335,3.19c-1.921,2.952-5.576,5.016-10.217,5.016C174.5,72.068,169.168,67.006,169.168,59.6Zm7.4-2.311h10.266c-.563-2.767-2.533-4.029-5.156-4.029A5.123,5.123,0,0,0,176.567,57.287Zm-51.184,7.792c0-7.874,10.217-7.874,11.809-7.874H140v-.094c0-2.25-1.123-3.841-3.889-3.841a7.445,7.445,0,0,0-4.5,1.5L126.643,51.4a14.132,14.132,0,0,1,10.69-4.267c7.591,0,10.262,3.889,10.262,9.563V71.455H140v-2.2c-1.263,1.826-4.075,2.813-6.51,2.813C130.3,72.064,125.383,70.843,125.383,65.079Zm7.681-.983c0,1.735,1.406,2.389,3.047,2.389A5.142,5.142,0,0,0,140,64.8V61h-.608C135.6,61,133.065,61.707,133.065,64.1Zm-101.186.983c0-7.874,10.217-7.874,11.812-7.874H46.5v-.094c0-2.25-1.126-3.841-3.905-3.841a7.447,7.447,0,0,0-4.5,1.5L33.138,51.4a14.126,14.126,0,0,1,10.686-4.267c7.6,0,10.262,3.889,10.262,9.563V71.455H46.5v-2.2c-1.266,1.826-4.078,2.813-6.51,2.813C36.8,72.064,31.879,70.843,31.879,65.079ZM39.57,64.1c0,1.735,1.4,2.389,3.043,2.389A5.21,5.21,0,0,0,46.52,64.8L46.5,61h-.6C42.1,61,39.57,61.707,39.57,64.1Zm114.257-1.839V53.973h-2.952V47.692h2.952V42.725h7.594v4.967h4.687v6.281h-4.687v7.486c0,2.487.892,3.753,3.236,3.753a9.76,9.76,0,0,0,1.452-.143v6.376a9.769,9.769,0,0,1-3.281.421C155.518,71.866,153.828,66.9,153.828,62.257Zm-132.97,9.2L8.063,52.333V71.455H0V38.646H7.031l12.8,19.122V38.646h8.063V71.455Zm64.213,0V47.692h7.594v23.76Zm-19.647,0-9.23-23.76H64.3l4.827,15.184,4.827-15.184h8.069L72.79,71.452ZM84.883,41.035a3.984,3.984,0,1,1,3.984,3.984A3.984,3.984,0,0,1,84.883,41.035Zm216.54-19.523c0-7.03,5.344-12.466,12.749-12.466s12.75,5.39,12.75,12.466c0,7.031-5.3,12.469-12.75,12.469S301.422,28.543,301.422,21.512Zm7.688,0a5.086,5.086,0,0,0,10.172,0,5.086,5.086,0,1,0-10.172,0Zm-100.164,0c0-7.03,5.344-12.466,12.749-12.466s12.75,5.39,12.75,12.466c0,7.031-5.3,12.469-12.75,12.469S208.947,28.543,208.947,21.512Zm7.688,0a5.086,5.086,0,0,0,10.172,0,5.086,5.086,0,1,0-10.172,0Zm-39.511-4.544C177.123,7.22,184.105,0,193.808,0a16.3,16.3,0,0,1,13.264,6.328l-6.7,4.413a8.055,8.055,0,0,0-6.562-3c-5.718,0-8.622,4.592-8.622,9.234s2.9,9.28,8.622,9.28A7.986,7.986,0,0,0,200.37,23.2l6.7,4.4a16.2,16.2,0,0,1-13.264,6.376C184.105,33.981,177.123,26.716,177.123,16.968Zm-35.762,11.3,6.891-2.155c.28.937,1.217,1.92,3.371,1.92,1.595,0,2.862-.468,2.862-1.686,0-1.627-2.484-1.549-5.3-2.158-4.557-1.032-7.031-2.673-7.031-7.311,0-4.967,4.264-7.828,10.217-7.828,4.078,0,8.108,2.015,9.14,6.047l-6.376,1.547a2.5,2.5,0,0,0-2.718-1.735c-1.5,0-2.907.423-2.907,1.735,0,1.546,2.578,1.627,4.452,2.015,6,1.266,8.392,3,8.392,7.359,0,5.016-3.7,7.968-10.641,7.968C146.938,33.981,142.344,32.435,141.362,28.263ZM84.648,21.512c0-7.03,5.344-12.466,12.749-12.466s12.747,5.39,12.747,12.466c0,7.031-5.3,12.469-12.747,12.469S84.648,28.543,84.648,21.512Zm7.688,0a5.084,5.084,0,0,0,10.168,0,5.084,5.084,0,1,0-10.168,0ZM64.21,31.075v2.3H56.636V.563H64.23V11.956a8.241,8.241,0,0,1,6.7-2.907c7.389,0,11.373,6.23,11.373,12.463S78.321,33.981,70.912,33.981A8.24,8.24,0,0,1,64.21,31.075Zm.283-9.563a5.063,5.063,0,1,0,10.126,0,5.063,5.063,0,1,0-10.126,0Zm-37.123,0c0-7.03,5.344-12.466,12.749-12.466,7.454,0,12.75,5.39,12.75,12.466,0,7.031-5.3,12.469-12.75,12.469S27.371,28.543,27.371,21.512Zm7.688,0a5.093,5.093,0,0,0,10.185,0h-.013a5.086,5.086,0,1,0-10.172,0Zm232.2,2.663V15.891H264.3V9.609h2.952V4.642h7.594V9.609h4.687v6.282h-4.684v7.487c0,2.487.889,3.753,3.232,3.753a9.872,9.872,0,0,0,1.452-.143v6.376a9.781,9.781,0,0,1-3.281.42C268.941,33.783,267.256,28.816,267.256,24.174Zm-152.282,0V15.891h-2.952V9.609h2.952V4.642h7.594V9.609h4.7v6.282h-4.7v7.487c0,2.487.889,3.753,3.232,3.753a9.9,9.9,0,0,0,1.455-.143v6.376a9.805,9.805,0,0,1-3.281.42C116.66,33.783,114.974,28.816,114.974,24.174Zm215.7,9.2V.563h7.639v32.81Zm-46.217,0V9.612h7.594v3.606a9.054,9.054,0,0,1,7.5-4.173V17.2c-6.748-1.032-7.486,2.813-7.486,6.8v9.375Zm-31.075,0v-12.8c0-2.718-1.686-4.075-3.794-4.075-2.2,0-3.8,1.452-3.8,4.075v12.8H238.2V9.612h7.591v2.2a8.263,8.263,0,0,1,6.51-2.767c5.911,0,8.723,4.684,8.723,9.465V33.373Zm-234.771,0L13.075,22.4H8.014V33.373H0V.563H12.61c8.342,0,12.606,4.781,12.606,11.343a9.551,9.551,0,0,1-5.061,8.668l6.985,12.8ZM8.014,15.657h4.6c2.343,0,4.5-.938,4.5-3.75,0-2.438-1.83-3.75-4.5-3.75h-4.6Zm124.394-3.8V.563h5.439v11.3Z" transform="translate(0 0)" fill="#fff"/>
  </g>
</svg>
