<svg xmlns="http://www.w3.org/2000/svg" width="44.247" height="35.992" viewBox="0 0 44.247 35.992">
  <g id="btn" transform="translate(0)">
    <g id="robot-icon" transform="translate(0)">
      <g id="Grupo_14392" data-name="Grupo 14392" transform="translate(0 0)">
        <g id="Grupo_14391" data-name="Grupo 14391" transform="translate(0)">
          <path id="Unión_2" data-name="Unión 2" d="M9.154,34.442a12.4,12.4,0,0,1-9.07-9.391c-.022-.1-.044-.207-.068-.323a.8.8,0,0,1,.648-.951L.8,23.754A32.268,32.268,0,0,1,1,11.233c.075-.344.169-.7.279-1.049l-.028-.005a.8.8,0,0,1-.559-.395.806.806,0,0,1-.05-.689A12.4,12.4,0,0,1,9.154,1.551,52.836,52.836,0,0,1,22.126,0,52.842,52.842,0,0,1,35.1,1.551,12.393,12.393,0,0,1,43.6,9.073.8.8,0,0,1,43,10.159l-.026,0c.114.361.21.721.286,1.069A32.04,32.04,0,0,1,43.972,18a32.229,32.229,0,0,1-.522,5.779l.132.023a.8.8,0,0,1,.648.951h0c-.019.092-.041.2-.063.3A12.4,12.4,0,0,1,35.1,34.442a52.847,52.847,0,0,1-12.971,1.551A52.851,52.851,0,0,1,9.154,34.442Zm6.894-28.6A44.234,44.234,0,0,0,10.5,6.86a6.916,6.916,0,0,0-1.786.73c-.137.08-.272.166-.4.255a6.928,6.928,0,0,0-.747.587c-.117.105-.232.216-.341.329a6.83,6.83,0,0,0-1.436,2.216c-.066.162-.127.332-.187.521l-.009.026h0l-.006.017c-.061.2-.109.378-.148.559a27.382,27.382,0,0,0-.464,2.886c-.053.491-.093.993-.119,1.491S4.814,17.49,4.814,18c0,.359.008.74.026,1.164,0,.035,0,.071,0,.1v.009c0,.022,0,.045,0,.068.018.381.044.763.077,1.136l0,.036v.006c0,.024,0,.049.007.074.072.783.178,1.567.314,2.33.068.384.128.692.188.97a6.923,6.923,0,0,0,2.874,4.255c.134.091.269.177.4.255a6.9,6.9,0,0,0,1.786.73c.437.111.884.216,1.328.313,1.359.3,2.779.535,4.22.71a50.872,50.872,0,0,0,6.077.36,50.864,50.864,0,0,0,6.077-.36c1.441-.174,2.861-.413,4.22-.71.445-.1.892-.2,1.328-.313a6.934,6.934,0,0,0,3.888-2.626,6.895,6.895,0,0,0,1.176-2.614c.057-.264.113-.55.177-.9.14-.774.249-1.577.324-2.385V20.6c0-.037.007-.076.011-.114.033-.371.059-.755.077-1.139,0-.037,0-.075,0-.112v-.012q0-.026,0-.052c.018-.429.026-.812.026-1.171,0-.511-.014-1.022-.04-1.519-.015-.292-.039-.609-.073-1-.006-.073-.014-.152-.023-.248-.063-.649-.151-1.3-.26-1.947-.013-.077-.027-.158-.042-.239-.066-.365-.124-.666-.185-.947-.04-.184-.089-.369-.151-.566l-.008-.025-.008-.024c-.06-.185-.124-.363-.191-.528a6.919,6.919,0,0,0-4.705-4.1c-.874-.222-1.781-.42-2.7-.589-.463-.086-.937-.165-1.408-.237-.951-.145-1.933-.264-2.92-.353-1.505-.136-3.053-.2-4.6-.2A50.88,50.88,0,0,0,16.048,5.837ZM29.022,20.588a1.076,1.076,0,0,1-.814-.786,7.7,7.7,0,0,1,0-3.611,1.076,1.076,0,0,1,.814-.786,4.379,4.379,0,0,1,1.831,0,1.075,1.075,0,0,1,.814.786,7.7,7.7,0,0,1,0,3.611,1.076,1.076,0,0,1-.814.786,4.381,4.381,0,0,1-1.831,0Zm-15.453,0a1.076,1.076,0,0,1-.814-.786,7.7,7.7,0,0,1,0-3.611,1.076,1.076,0,0,1,.814-.786,4.378,4.378,0,0,1,1.831,0,1.076,1.076,0,0,1,.814.786,7.7,7.7,0,0,1,0,3.611,1.076,1.076,0,0,1-.814.786,4.38,4.38,0,0,1-1.831,0Z" fill="#fff"/>
        </g>
      </g>
    </g>
  </g>
</svg>
